<svg id="Layer_1" data-name="Layer 1" xmlns="http://www.w3.org/2000/svg" width="200" height="200" viewBox="0 0 200 200">
  <title>icon</title>
  <g>
    <path d="M36.44,78.42a89.43,89.43,0,0,0-6.94-6.21c-2.85-2-3.55-4.66-3.37-7.94.2-3.56,0-7.14.06-10.7,0-4,.5-7.5-4.14-10.27s-3.84-9.94.39-13.66a9.38,9.38,0,0,1,13.81,1.43c3.33,4.28,2.57,10.59-2.12,13.35-2.55,1.49-3.1,3.16-3,5.77a49,49,0,0,1,0,9.54c-.77,5.54,1.41,9.26,6.56,12,.37-10.79,5.4-18.44,15.86-22.68-1.52-1.3-2.88-2.37-4.13-3.56-.71-.67-1.89-1.63-1.78-2.28.68-4.07-2.24-5.55-4.68-7.74-3.9-3.5-3.53-9.59.34-13.25A9.7,9.7,0,0,1,57,22.46a9.45,9.45,0,0,1-.67,13.63c-4.86,4.24-4.85,4.33,1,8.1C60,34,65.76,26.93,76.54,25.06S95,27.89,101,36.67C107,28,114.77,23,125.56,25.1c10.52,2,16.43,8.94,19.11,19.3a23.3,23.3,0,0,0,3.11-2.47c1.91-2.14,1.28-3.67-1.11-5.15C142.54,34.2,141,30.07,142.3,26s5.56-7.11,9.55-6.93A10.26,10.26,0,0,1,161,27c.87,3.72-1,7.74-4.71,10.05-.92.58-2.54,1.49-2.44,2,.91,4.87-2.75,6.92-6.08,9.6C158,53,163.16,60.48,163.64,71.47c4-2.58,6.94-5.25,6.1-10.44-.42-2.61-.07-5.34-.07-8,0-3.81.54-7.24-3.91-10s-3.95-9.52.11-13.38a9.29,9.29,0,0,1,13.83.84c3.51,4.22,3,10.44-1.63,13.37-2.74,1.72-3.28,3.59-3.16,6.46.2,4.71-.12,9.44.12,14.14a7.75,7.75,0,0,1-3.18,7.23c-2.41,1.84-4.54,4-7.14,6.41,10.7,4.75,16.47,12.64,16.54,24.26s-5.54,19.75-16.58,24.75a90,90,0,0,1,7.69,7,9.9,9.9,0,0,1,2.49,5.5c.32,5.59.15,11.21.09,16.82,0,1.87.18,3.17,2.23,4.2a8.21,8.21,0,0,1,4.35,9.64,9.54,9.54,0,0,1-18.36,1.48c-1.49-3.91-.41-8.83,3.37-10.74,3.18-1.6,3.14-3.77,3.08-6.46-.06-3.06,0-6.12,0-9.18,0-7.1,0-7.1-6.26-11.74C162,144.4,156.74,152,145.91,155.45c2,1.63,3.7,3,5.36,4.5.73.66,1.9,1.57,1.83,2.27-.38,3.74,2.05,5.33,4.52,7.41,4.14,3.47,3.85,9.74-.13,13.54A9.49,9.49,0,1,1,144.86,169c4.75-3.89,4.67-4.88-.84-8.19-2.48,10.9-9.18,17.82-20.21,19.34-10,1.38-17.76-3.12-23.37-12C94.73,177.27,86.68,181.74,76.1,180,65.69,178.36,59,172.2,56.55,161.18c-1.46,1.24-2.9,2-3.61,3.17-1.26,2.12-.34,3.54,1.81,4.86a9,9,0,0,1,4,10.61,9.87,9.87,0,0,1-8,6.71,9.58,9.58,0,0,1-6-17.7c.9-.58,2.53-1.46,2.44-2-1.06-5.87,3.88-7.71,7.52-11C44.22,152,38.45,144.83,37.5,134c-4.7,2.62-7.25,5.89-6.42,11.24a42.24,42.24,0,0,1,.05,7.63c-.09,3.77-.22,7,3.93,9.59C39.57,165.3,39,172,35,175.84A9.28,9.28,0,0,1,21.12,175c-3.51-4.24-3.05-10.43,1.61-13.37,2.75-1.73,3.3-3.59,3.18-6.46-.2-4.71.12-9.44-.12-14.15A7.75,7.75,0,0,1,29,133.81c2.41-1.84,4.54-4,7.17-6.44-10.78-4.75-16.37-13-16.37-24.41S25.41,83.19,36.44,78.42Zm139.31,25c.05-10.18-5.63-17.75-15.6-20.27-3.43-.87-4.21-2.17-3-5.59,3.7-10.89-2.79-22-14-23.89-3.42-.57-4.07-2.08-4.08-5,0-10.28-7.27-17.88-17.12-18.21C111.63,30,104,37,103,47.3c-.13,1.25-1.68,2.35-2.57,3.52-.88-1.18-2.42-2.28-2.55-3.53-1-10.18-8.51-17.13-18.55-16.94A17.87,17.87,0,0,0,61.73,47.89c-.06,3.6-1.4,4.79-4.66,5.47-11.3,2.39-17.4,13.07-13.54,23.8,1.17,3.26.54,4.63-2.84,5.33A18.89,18.89,0,0,0,25.93,95.43c-4.12,11.74,2.09,23.8,14,27.65,2.38.77,4.92,1,3.75,5-3.23,11.14,3.57,21.31,15.2,23.15,2.68.43,3.68,1.32,3.22,4.25-1.21,7.78,3.76,15.74,11.38,18.79,7.38,2.95,16.43.73,20.74-5.86,2.07-3.16,2.81-7.21,4-10.9.71-2.21,2.82-3.35,4.1-1.84.64.75.7,2.08.83,3.17,1.16,9.74,9.38,17.2,18.55,16.79A18.5,18.5,0,0,0,139.4,158c.26-5.92.26-5.92,6-7.52,9-2.52,15-12.57,12.08-21.16-1.31-3.86-.2-5.17,3.37-6.18C170.2,120.45,175.71,113,175.75,103.37ZM33.45,37.76l0-1.78c-1.62-1.23-3.11-3.2-4.89-3.52-2.44-.44-4.38,1.35-4.48,4s1.5,4.94,4.32,4.53C30.23,40.77,31.79,38.9,33.45,37.76Zm138.23,4.12,1.83-.1c1.08-1.7,2.8-3.31,3.08-5.14.41-2.65-1.72-4.11-4.25-4.33s-4.9,2.33-4.19,4.72C168.69,38.83,170.46,40.27,171.68,41.88ZM23.46,167.65l-.07,1.75c1.6,1.27,3,3.28,4.82,3.64,2.4.48,4.41-1.16,4.56-3.92s-1.44-4.94-4.21-4.64C26.77,164.68,25.15,166.53,23.46,167.65Zm153.89,2.16.09-1.73c-1.59-1.26-3-3.17-4.82-3.6-2.54-.61-4.31,1.21-4.57,3.86-.3,3,1.57,4.91,4.19,4.71C174,172.91,175.65,171,177.35,169.81ZM43.64,28.92c2.75,2.09,4.25,4.06,6,4.38,2.46.45,4.25-1.39,4.51-4.08.23-2.43-2.13-5.26-4.35-4.64C48,25.09,46.47,26.86,43.64,28.92ZM146,27.75l-.12,1.72c1.56,1.33,2.92,3.16,4.72,3.86,2.1.82,4.79-1.82,4.74-4.25,0-2.67-1.67-4.68-4.15-4.45C149.4,24.79,147.74,26.65,146,27.75ZM54.88,177.26l0-1.74c-1.68-1.17-3.26-3.07-5.07-3.32-2.51-.36-4.14,1.65-4.32,4.28-.16,2.4,2.45,5.18,4.56,4.45C51.84,180.3,53.27,178.53,54.88,177.26ZM146,175.54l0,1.76c1.62,1.25,3.07,3,4.9,3.63,2.14.7,4.69-2.08,4.54-4.5-.18-2.66-1.81-4.63-4.35-4.24C149.21,172.48,147.65,174.37,146,175.54Z" fill="#3d1c01"/>
    <path d="M140.82,118.41v7.8c2.14,0,4.21-.32,6.1.11,1.44.32,3.63,1.44,3.79,2.48.35,2.21-1.62,2.73-3.64,2.64s-4,0-5.94,0c-1.7,8.62-3.93,10.84-12.06,11.84,0,2.14.32,4.43-.11,6.58-.26,1.26-1.7,2.28-2.6,3.4-.83-1.08-2.15-2.07-2.37-3.27-.4-2.08-.11-4.28-.11-6.7h-7.82a38.57,38.57,0,0,1-.11,6.82c-.22,1.17-1.63,2.12-2.51,3.17-.88-1-2.3-2-2.52-3.13-.41-2.19-.12-4.5-.12-6.94h-7.73c0,2.28.32,4.59-.13,6.73-.26,1.24-1.77,2.21-2.72,3.3-.82-1.09-2.14-2.09-2.36-3.29a37.56,37.56,0,0,1-.11-6.67H90a37.92,37.92,0,0,1-.12,6.85c-.21,1.16-1.64,2.08-2.52,3.11-.87-1-2.26-2-2.49-3.14-.41-2.08-.12-4.3-.12-6.77H76.94a38.65,38.65,0,0,1-.11,6.63c-.21,1.19-1.54,2.18-2.36,3.26-.91-1.11-2.33-2.12-2.6-3.36-.44-2.05-.12-4.26-.12-6.33-8.67-1.78-10.47-3.58-12-12.09A37.2,37.2,0,0,1,53,131.3c-1.16-.21-2.1-1.63-3.13-2.5,1.05-.86,2-2.24,3.19-2.47,2.07-.4,4.29-.11,6.75-.11v-7.81c-1.84,0-3.7,0-5.56,0s-4.23.1-4.28-2.53c-.06-2.93,2.36-2.77,4.44-2.75,1.76,0,3.51,0,5.49,0v-7.72c-1.93,0-3.91,0-5.89,0s-4.27-.24-3.93-2.76c.14-1,2.35-2.13,3.8-2.48,1.8-.42,3.77-.1,6-.1V92.36c-2.16,0-4.35.31-6.39-.11-1.31-.27-2.39-1.61-3.58-2.47,1.14-.89,2.18-2.29,3.45-2.56,2-.43,4.25-.12,6.59-.12V79.3c-2.22,0-4.51.32-6.65-.12-1.24-.26-2.23-1.73-3.33-2.65,1.08-.81,2.07-2.11,3.25-2.32a34.66,34.66,0,0,1,6.36-.11c2.16-9,4-10.73,12.17-11.93a39,39,0,0,1,.11-6.66c.21-1.17,1.55-2.14,2.38-3.2.9,1,2.37,1.89,2.59,3,.41,2.18.12,4.5.12,7h7.81c0-2.21-.32-4.5.12-6.64.25-1.26,1.71-2.26,2.62-3.38.84,1.08,2.18,2.06,2.4,3.25.4,2.08.11,4.29.11,6.71h7.74a37.47,37.47,0,0,1,.12-6.8c.21-1.17,1.62-2.12,2.49-3.17.9,1,2.36,1.93,2.58,3.08.42,2.18.12,4.5.12,7h7.74c0-2.25-.32-4.55.12-6.69.26-1.24,1.75-2.22,2.69-3.32.82,1.09,2.12,2.09,2.35,3.29a37.54,37.54,0,0,1,.11,6.67h7.81c0-2.39-.3-4.7.11-6.87.22-1.16,1.65-2.08,2.53-3.11.85,1,2.21,2,2.44,3.18.4,2.08.11,4.29.11,6.71,7.17.56,11.51,4,11.72,11.94a40.1,40.1,0,0,1,6.77.11c1.19.2,2.19,1.49,3.27,2.3-1.09.92-2.07,2.38-3.31,2.65-2,.45-4.25.13-6.63.13v7.82c2.42,0,4.73-.29,6.91.12,1.14.21,2.06,1.66,3.07,2.55-1.05.86-2,2.24-3.17,2.47-2.08.4-4.3.11-6.75.11v7.73a32.48,32.48,0,0,1,6.32.11c1.31.27,2.42,1.58,3.62,2.43-1.25.93-2.38,2.33-3.76,2.67-1.91.46-4,.12-6.24.12v7.72c2,0,4.19-.33,6.19.12,1.4.31,2.55,1.69,3.82,2.6-1.32.85-2.54,2.11-4,2.45C145.12,118.74,143.14,118.41,140.82,118.41ZM100.4,138.12h0c9.18,0,18.36,0,27.53,0,6,0,7.81-1.74,7.82-7.72q0-27.72,0-55.43c0-5.61-2-7.55-7.64-7.56q-27.52,0-55,0c-6.3,0-8,1.71-8,7.93q0,27.53,0,55.05c0,5.89,1.91,7.74,7.84,7.75C82.05,138.14,91.23,138.12,100.4,138.12Z" fill="#3d1c01"/>
    <path d="M73.18,102.75c0-6.24,0-12.48,0-18.72,0-5.79,2.54-8.72,8.19-8.8q19.1-.26,38.21,0c5.21,0,8.23,2.86,8.31,8q.32,19.49,0,39c-.08,5.17-3.13,7.71-8.44,7.73q-18.92.06-37.84,0c-5.59,0-8.37-2.85-8.42-8.5C73.14,115.24,73.18,109,73.18,102.75Zm49.76.06c0-6-.08-12,0-18,.06-3-1.16-4.47-4.24-4.47q-18.13,0-36.28,0c-3,0-4.44,1.32-4.43,4.37q.06,18,0,35.9c0,3,1.24,4.48,4.3,4.48q18.15,0,36.28,0c3,0,4.43-1.2,4.36-4.37C122.85,114.78,122.94,108.8,122.94,102.81Z" fill="#ff3e02"/>
    <path d="M109.79,114.94c-3,.83-4.69.25-5.36-2.48-.61-2.44-2.13-3.51-4.77-3.16a20.75,20.75,0,0,1-5.34,0c-2.83-.35-4.35.68-5.47,3.37-.57,1.38-2.54,2.18-3.88,3.24l-1.21-1.09q3.15-7.2,6.29-14.42c1.17-2.67,2.17-5.44,3.56-8a4.33,4.33,0,0,1,3-2,4,4,0,0,1,3.2,1.72C103.23,99.58,106.43,107.18,109.79,114.94ZM96.52,95.16c-1.58,3.67-2.9,6.76-4.36,10.19h8.67Z" fill="#ff3e02"/>
    <path d="M113.88,90.37h3.48V115l-3.48.23Z" fill="#ff3e02"/>
  </g>
</svg>
