<svg id="Layer_1" data-name="Layer 1" xmlns="http://www.w3.org/2000/svg" width="200" height="200" viewBox="0 0 200 200">
  <title>gst</title>
  <g>
    <path d="M17,147.09V44c1.62-4.84,5.07-6.56,10.05-6.45,9,.19,18,.08,27,0a4.1,4.1,0,0,0,2.43-1c1.76-1.57,3.36-3.32,5-5,2.44-2.39,5-2.59,7.79-.61,1.67,1.18,3.36,2.34,5,3.6a2,2,0,0,0,2.4.23c2.41-1.13,4.89-2.13,7.38-3.08A1.91,1.91,0,0,0,85.46,30c.31-2.28.71-4.56,1.19-6.81A5.2,5.2,0,0,1,92,18.79q5.67,0,11.34,0a5.19,5.19,0,0,1,5.38,4.35c.47,2.26.89,4.53,1.17,6.82a1.87,1.87,0,0,0,1.42,1.75c2.54,1,5.06,2,7.54,3.11a1.8,1.8,0,0,0,2.12-.18c1.76-1.33,3.57-2.6,5.39-3.84a5.37,5.37,0,0,1,7.41.64c1.66,1.61,3.32,3.22,4.89,4.92a3.7,3.7,0,0,0,3,1.27q14-.08,28,0c5.37,0,8.64,3.32,8.64,8.64q0,49.17,0,98.34a10.81,10.81,0,0,1-.16,2.35c-.91,4-4.12,6.4-8.42,6.4H122a17.28,17.28,0,0,0,4.34,9.26,4.43,4.43,0,0,0,3.48,1.69c5.77.15,9.42,5.43,7.48,10.59-1.24,3.26-4.06,5-8.1,5H70.76a36.37,36.37,0,0,1-5.82-.1A10.94,10.94,0,0,1,60.38,178,7.43,7.43,0,0,1,58,169.64c1.08-3.24,3.84-5.2,7.55-5.4.71,0,1.63,0,2.1-.35a16.39,16.39,0,0,0,5.72-10.54H25.61a8.21,8.21,0,0,1-8.29-5.77A2.11,2.11,0,0,0,17,147.09ZM143.92,43c-1,1.77-1.7,3.31-2.61,4.75s-2.1,2.88-3.06,4.39a2.09,2.09,0,0,0-.18,1.64q1.6,4.09,3.4,8.11a2.06,2.06,0,0,0,1.27,1c2.21.47,4.45.77,6.66,1.2,3.25.65,4.75,2.48,4.78,5.82,0,3.57,0,7.15,0,10.72,0,3.38-1.78,5.32-5.15,5.86-2.07.34-4.16.59-6.2,1a2.44,2.44,0,0,0-1.46,1.27c-1.17,2.57-2.24,5.19-3.25,7.83a2.07,2.07,0,0,0,.12,1.64c1.23,1.9,2.6,3.69,3.88,5.56,1.85,2.71,1.66,5.19-.64,7.53q-3.79,3.88-7.69,7.69c-2.31,2.26-4.84,2.44-7.53.56-1.81-1.26-3.56-2.6-5.41-3.8a2.21,2.21,0,0,0-1.76-.17q-4,1.53-7.81,3.3a2.49,2.49,0,0,0-1.25,1.47c-.52,2.35-.81,4.75-1.31,7.11a4.84,4.84,0,0,1-4.57,4.1q-6.45.24-12.91,0a4.83,4.83,0,0,1-4.56-4.11c-.49-2.36-.78-4.76-1.29-7.11A2.46,2.46,0,0,0,84.15,119c-2.57-1.17-5.18-2.24-7.82-3.25a2.25,2.25,0,0,0-1.76.18c-1.85,1.19-3.61,2.53-5.43,3.78-2.76,1.9-5.24,1.68-7.64-.69s-5.08-5-7.58-7.58c-2.29-2.33-2.5-4.83-.63-7.53,1.25-1.81,2.62-3.55,3.81-5.4a2.5,2.5,0,0,0,.14-1.92c-1-2.54-2.13-5-3.08-7.55a2,2,0,0,0-1.74-1.48c-2.08-.3-4.15-.66-6.21-1-3.15-.53-4.94-2.52-5-5.7,0-3.83,0-7.67,0-11.5a5.14,5.14,0,0,1,4.45-5.13c2.22-.41,4.43-.88,6.67-1.11,1.2-.13,1.5-.76,1.85-1.71a41.48,41.48,0,0,1,2.53-6.25c.9-1.63.69-2.7-.37-4.16-1.75-2.42-4.08-4.58-4.45-7.92H26.23c-3,0-3.86.81-3.86,3.79v87.65c3.66,0,7.07,0,10.48,0a2.76,2.76,0,0,1,3,2.71c0,1.55-1.27,2.63-3.09,2.65H22.38c0,1.91-.06,3.59,0,5.26a2.62,2.62,0,0,0,2.81,2.75c.52,0,1.05,0,1.58,0H168.63c.63,0,1.26,0,1.89,0a2.38,2.38,0,0,0,2.42-2.26c.15-1.86,0-3.74,0-5.72H45.36c-.58,0-1.16,0-1.73,0a2.58,2.58,0,0,1-2.39-2.64,2.54,2.54,0,0,1,2.34-2.67,17,17,0,0,1,1.89,0H173c0-.51.07-.82.07-1.12q0-43.5,0-87C173,44,172,43,169.64,43H143.92Zm-6.12,64.15c-1.5-2.1-3-4.23-4.53-6.37a5.5,5.5,0,0,1-.47-5.8c1.3-2.91,2.51-5.86,3.68-8.83a5.47,5.47,0,0,1,4.27-3.75c2.32-.42,4.65-.78,7-1.23.4-.08,1-.53,1-.81.07-3.61,0-7.21,0-10.87-2.59-.44-5-.88-7.45-1.25a5.83,5.83,0,0,1-5-4.22A79.54,79.54,0,0,0,133,56a5.86,5.86,0,0,1,.54-6.62c1.46-2,2.86-4,4.17-5.84l-8.22-8.22c-1.92,1.37-4,2.81-6,4.29a5.74,5.74,0,0,1-6.35.46A80.92,80.92,0,0,0,109,36.66a6.06,6.06,0,0,1-4.35-5.23c-.29-2.07-.61-4.15-1-6.2-.08-.41-.65-1-1-1-3.51-.08-7-.05-10.67-.05-.42,2.46-.87,4.82-1.2,7.2a6.11,6.11,0,0,1-4.43,5.34,73.79,73.79,0,0,0-8,3.29,5.77,5.77,0,0,1-6.48-.46c-2-1.48-4.09-2.92-6-4.25l-8.19,8.27,4.27,6a5.69,5.69,0,0,1,.51,6.21C61.22,58.47,60,61.27,59,64.12a5.88,5.88,0,0,1-5,4.16c-2.45.37-4.9.84-7.37,1.27,0,3.62,0,7,0,10.44,0,.89.33,1.15,1.17,1.25,2.08.27,4.14.67,6.21,1a6.05,6.05,0,0,1,5.13,4.47,53.74,53.74,0,0,0,3.11,7.53,6.15,6.15,0,0,1-.49,7.18c-1.46,1.9-2.8,3.89-4.07,5.66l8.22,8.22L72,110.92a5.67,5.67,0,0,1,6.08-.47c2.76,1.25,5.55,2.47,8.4,3.49a6,6,0,0,1,4.25,5.13c.31,2.07.61,4.15,1,6.2.08.4.66,1,1,1,3.51.07,7,0,10.67,0,.41-2.47.84-4.83,1.2-7.2a6,6,0,0,1,4.36-5.21,55.89,55.89,0,0,0,7.68-3.17,6.13,6.13,0,0,1,7.17.52c1.91,1.45,3.89,2.79,5.76,4.11Zm-21.25,46.25H78.86l-4.11,10.69h45.9ZM97.69,175.05h31c2.75,0,4.17-1,4.14-3s-1.44-2.91-4.21-2.91H66.75a13.27,13.27,0,0,0-1.41,0,3,3,0,0,0-2.81,2.87A2.89,2.89,0,0,0,65.25,175a12.45,12.45,0,0,0,1.73.06Z" fill="#3d1c01"/>
    <path d="M97.69,110.23a35,35,0,1,1,35-34.72A35,35,0,0,1,97.69,110.23Zm0-64.51A29.57,29.57,0,1,0,127.3,75.25,29.65,29.65,0,0,0,97.73,45.72Z" fill="#3d1c01"/>
    <path d="M115.49,75.28c-3-2.92-5.76-5.67-8.54-8.45-1.3-1.29-1.49-2.79-.58-3.93a2.66,2.66,0,0,1,4-.26q5.4,5.28,10.69,10.68a2.55,2.55,0,0,1,0,3.92q-5.25,5.34-10.58,10.58a2.64,2.64,0,0,1-3.92.13,2.68,2.68,0,0,1,.12-3.94C109.53,81.14,112.42,78.32,115.49,75.28Z" fill="#ff3e02"/>
    <path d="M80,74.85c3,2.94,5.71,5.67,8.45,8.42,1.4,1.41,1.54,3,.44,4.17s-2.75,1.15-4.26-.36q-5-4.93-9.92-9.91c-1.65-1.66-1.67-3-.05-4.61q5-5,10-10c1.4-1.38,3-1.46,4.17-.28s1,2.77-.38,4.17C85.68,69.21,82.87,72,80,74.85Z" fill="#ff3e02"/>
    <path d="M92.35,85.5l1.84-7.32q1.75-7,3.49-14a2.63,2.63,0,0,1,2.3-2.25c2.15-.29,3.48,1.43,2.9,3.79-1.14,4.62-2.3,9.23-3.45,13.85-.6,2.38-1.15,4.78-1.81,7.14a2.68,2.68,0,0,1-3,2C93.28,88.51,92.34,87.37,92.35,85.5Z" fill="#ff3e02"/>
  </g>
</svg>
