<svg id="Layer_1" data-name="Layer 1" xmlns="http://www.w3.org/2000/svg" width="200" height="200" viewBox="0 0 200 200">
  <title>icon</title>
  <g>
    <path d="M39.83,57.31V55.43q0-10.3,0-20.6c0-2.45.81-3.27,3.28-3.27H93.23c2.53,0,3.32.81,3.32,3.4V57.22H112v-2.5c-1.59,0-3.18,0-4.77,0-1.94,0-2.87-.94-2.89-2.85,0-3.27,0-6.55,0-9.82a2.5,2.5,0,0,1,2.8-2.76c1.56,0,3.11,0,4.93,0,0-.79,0-1.51,0-2.23,0-2,.93-2.91,3-2.92,5.11,0,10.21.06,15.32,0a17.21,17.21,0,0,0,4.53-.82c9.95-3,19.87-6.1,29.82-9.09a3.8,3.8,0,0,1,2.85.17,3.54,3.54,0,0,1,1.18,2.55c.12,4.06,0,8.13,0,12.41,3.31-.26,6.37,0,8.56,2.75a7.55,7.55,0,0,1,1.75,5.37c-.15,2.53-1.17,4.76-3.39,5.87-2,1-4.39,1.31-6.83,2v2c1.71,0,3.36,0,5,0A7.63,7.63,0,0,1,181.65,65q0,41.19,0,82.39a7.64,7.64,0,0,1-8,7.71h-59v7.73h1.7c4.41,0,8.81,0,13.22,0,2.14,0,3,.89,3.05,3q0,4.75,0,9.49c0,2-.93,2.93-3,2.93q-25.4,0-50.78,0c-2,0-3-.91-3-2.93,0-3.22,0-6.44,0-9.65,0-1.92.94-2.84,2.89-2.84,5,0,10,0,15,0v-7.73H35.37c-5.29,0-8.44-3.12-8.44-8.36V65.67c0-5.25,3.14-8.36,8.43-8.36Zm56.72,5.21v12c0,2.57-.8,3.37-3.34,3.37h-50c-2.66,0-3.42-.76-3.42-3.44,0-4,0-7.91,0-12H36c-3.15,0-3.91.76-3.91,3.86v73.28H176.51V66a7.08,7.08,0,0,0,0-1.13A2.53,2.53,0,0,0,174,62.49c-1.7-.11-3.41,0-5.27,0,0,1.78,0,3.43,0,5.08a2.6,2.6,0,0,1-3.28,2.57,10.79,10.79,0,0,1-1.23-.36Q148.89,65,133.53,60.3a24.74,24.74,0,0,0-3.71-.55c-.8,5.41-1.53,10.5-2.3,15.57-.29,1.9-1.11,2.56-3,2.57-2.09,0-4.19,0-6.28,0-2.88,0-3.58-.71-3.59-3.61V62.52ZM45.08,36.78V72.63H91.32V36.78ZM32.22,144.91c-.52,4.11.3,5.08,4.22,5.08H172.31c.54,0,1.08,0,1.61,0a2.66,2.66,0,0,0,2.57-2.6c.06-.79,0-1.58,0-2.46Zm103-89.56,28.29,8.71V30c-9.22,2.82-18.33,5.6-27.42,8.43a1.52,1.52,0,0,0-.83,1.09C135.22,44.73,135.23,50,135.23,55.35Zm-7.76,112.78H81.19V173h46.28ZM117.24,54.61H130V39.37H117.24Zm-18,100.58v7.58h10.09v-7.58Zm20.56-82.54h2.85c.61-4.28,1.2-8.47,1.8-12.66h-4.65Zm49-23.1c1.75,0,3.61.54,4.6-1.25a3.17,3.17,0,0,0,0-2.66c-1-1.75-2.87-1.14-4.56-1.18Zm-59.32,0H112v-5h-2.44Z" fill="#3d1c01"/>
    <path d="M73.28,134.53H40.72c-2.7,0-3.47-.76-3.47-3.4V91.55c0-2.56.79-3.35,3.36-3.35h65.44c2.58,0,3.39.79,3.39,3.32q0,19.86,0,39.74c0,2.45-.82,3.27-3.28,3.27Zm30.93-39c-.59.33-1,.57-1.49.84-9,5.49-17.93,11-26.83,16.53a4.23,4.23,0,0,1-5.13,0c-8.91-5.58-17.88-11-26.84-16.54-.43-.27-.89-.49-1.44-.78V129.3h61.73ZM49.13,93.42c8.07,5,15.72,9.69,23.43,14.34a2.35,2.35,0,0,0,2-.22C80.76,103.78,87,100,93.17,96.14c1.35-.83,2.69-1.67,4.37-2.72Z" fill="#ff3e02"/>
    <path d="M122.35,119.08c-1.75,0-3.3,0-4.85,0-1.93,0-2.88-.94-2.88-2.85q0-15.14,0-30.25c0-2,.92-2.92,3-2.92q22.8,0,45.61,0c2,0,3,.91,3,2.92,0,2.4,0,4.8,0,7.37.93,0,1.72,0,2.51,0a2.43,2.43,0,0,1,2.63,2.6q0,15.36,0,30.73a2.46,2.46,0,0,1-2.73,2.68q-21.75,0-43.51,0c-1.8,0-2.72-1-2.73-2.84C122.33,124.13,122.35,121.72,122.35,119.08Zm5.24-20.51v25.57h38.48V98.57Zm33.33-5.22v-5H119.84v25.54h2.51V96.9c0-2.81.73-3.55,3.48-3.55h35.09Z" fill="#3d1c01"/>
    <path d="M60.46,54.66c0-2.46,0-4.93,0-7.39s1.83-3.51,4-2.47c5,2.47,10.08,5,15,7.57A3.22,3.22,0,0,1,81,54.72a3.22,3.22,0,0,1-1.47,2.35c-5,2.64-10.1,5.16-15.2,7.62-2,1-3.79-.21-3.82-2.49C60.43,59.69,60.46,57.17,60.46,54.66Zm5.18,3.58,7-3.52-7-3.49Z" fill="#ff3e02"/>
    <path d="M143.05,108.67v-4.94h17.89v4.94Z" fill="#3d1c01"/>
    <path d="M160.89,119H148.24v-5h12.65Z" fill="#3d1c01"/>
    <path d="M142.94,114.05V119H132.79v-4.9Z" fill="#3d1c01"/>
    <path d="M137.72,108.71h-4.93v-5h4.93Z" fill="#3d1c01"/>
  </g>
</svg>
