<svg id="Layer_1" data-name="Layer 1" xmlns="http://www.w3.org/2000/svg" width="200" height="200" viewBox="0 0 200 200">
  <title>icon</title>
  <g>
    <path d="M13.52,169.13c2.25-3.29,5.45-4,9.22-3.74,2.71.22,5.46,0,8.2.06,4,.09,6.16,2.23,6.26,6.23.1,3.54.09,7.09.06,10.63,0,3-1.18,5.27-4.15,6.36H17.69c-2.12-.43-2.72-2.55-4.17-3.74v-4.25a20.49,20.49,0,0,0,0-11Zm11.92,2.44c-5.82,0-5.82,0-5.82,5.8,0,5.64,0,5.64,5.72,5.64s5.84,0,5.84-5.84C31.18,171.57,31.18,171.57,25.44,171.57Z" fill="#ff3e02"/>
    <path d="M13.52,17c1.57-3,4-4,7.37-3.73s7.07.07,10.6.07S37,15,37.2,18.5c.19,4.13.17,8.29-.05,12.41-.19,3.24-2.36,5.23-5.86,5.4-3.93.2-7.88.18-11.81,0-2.55-.12-4.7-1.2-5.4-4-.23-3.67.71-7.39-.56-11Zm17.62,7.32c0-5.51,0-5.51-5.46-5.51h-.3c-5.72,0-5.72,0-5.72,5.86,0,5.57,0,5.57,5.46,5.57C31.14,30.27,31.14,30.27,31.14,24.35Z" fill="#ff3e02"/>
    <path d="M17.69,188.68H33.11a3.29,3.29,0,0,0-.1.53H17.79C17.76,189,17.73,188.85,17.69,188.68Z" fill="#f37563"/>
    <path d="M170.63,189.2a3.18,3.18,0,0,0-.1-.52H186c0,.17-.07.35-.1.52Z" fill="#f37563"/>
    <path d="M17.69,188.68c0,.17.07.35.1.52-4.27,0-4.27,0-4.27-4.26C15,186.13,15.57,188.25,17.69,188.68Z" fill="#fff5f2"/>
    <path d="M13.52,21.28c1.27,3.62.33,7.34.56,11l-.27-.09-.29,0Z" fill="#f47e6c"/>
    <path d="M13.52,169.73a20.49,20.49,0,0,1,0,11Z" fill="#f47e6c"/>
    <path d="M60.62,80.3c-1,.33-2.66-.72-2.68,1.43,0,2.34,1.78,1.43,2.86,1.47s2.65.74,2.67-1.36C63.5,79.48,61.65,80.67,60.62,80.3Zm.16,35.26c1-.3,2.68.68,2.69-1.44,0-2.32-1.79-1.42-2.87-1.45S58,111.91,58,114C57.92,116.38,59.76,115.19,60.78,115.56Zm0,32.31c.77-.59,2.8.85,2.67-1.59-.11-2.05-1.79-1.2-2.8-1.22s-2.67-.78-2.72,1.31S59.6,147.52,60.79,147.87Zm93.26-32.33c-1-.06-2.11.3-2.16-1.35s1.13-1.53,2.24-1.59c4.55-.25,6.38-2,6.53-6.6.17-5.27.17-10.54,0-15.81-.14-5-1.83-6.61-6.84-6.91-1-.07-2,.11-2-1.47s.95-1.44,2-1.5c5-.3,6.85-2.13,6.94-7.19.08-4.66,0-9.33,0-14,0-6.41-1.78-8.16-8.11-8.17H101.82q-25.87,0-51.75,0c-5,0-6.93,1.76-7.08,6.65q-.26,8.06,0,16.11c.14,4.6,2.05,6.36,6.56,6.6,1,0,2.33-.41,2.3,1.47s-1.31,1.41-2.34,1.46c-4.44.24-6.34,1.91-6.48,6.32q-.29,8.36,0,16.72c.14,4.39,2.09,6.09,6.5,6.31,1,0,2.32-.4,2.33,1.47s-1.3,1.4-2.32,1.46c-4.37.24-6.4,2-6.54,6.32-.17,5.67-.17,11.36,0,17,.16,4,2.2,5.94,6.18,5.94,2.16,0,2.95.63,2.66,2.75a20.71,20.71,0,0,0,0,2.73c0,2.24,1.12,3.44,3.31,3.49,3.65.07,7.3,0,11,0a3.1,3.1,0,0,0,3.43-3.39,19.12,19.12,0,0,0,0-2.73c-.24-2,.46-2.58,2.49-2.57q29.83.1,59.66,0c1.77,0,2.72.33,2.43,2.32-.11.79,0,1.62,0,2.43-.1,2.64,1.16,4,3.82,4,3.44,0,6.89,0,10.34,0,2.33,0,3.58-1.18,3.55-3.58,0-1,.08-2,0-3-.14-1.61.29-2.29,2.13-2.35,4.85-.15,6.61-1.86,6.75-6.65.16-5.36.15-10.74,0-16.11C160.5,117.5,158.67,115.84,154.05,115.54Zm-105-44.79a102.06,102.06,0,0,0,0-10.64C49,57.82,49.54,57,52.05,57q49.79.13,99.57,0c2.27,0,3.26.42,3.1,3a88.74,88.74,0,0,0,0,10.94c.16,2.6-.46,3.43-3.27,3.4-16.64-.15-33.29-.08-49.93-.08-16.34,0-32.68-.08-49,.08C49.57,74.34,48.93,73.4,49.09,70.75Zm96.61,11c0,2.33-1.83,1.16-2.85,1.53-1-.29-2.68.64-2.68-1.45,0-2.31,1.82-1.37,2.88-1.4S145.7,79.59,145.7,81.71Zm-11.63,0c.1,2.33-1.71,1.54-2.82,1.55-9.92,0-19.84,0-29.77,0-9.72,0-19.44,0-29.16,0-1,0-2.66.78-2.75-1.31-.09-2.35,1.73-1.52,2.82-1.53q29.48-.06,58.94,0C132.32,80.38,134,79.57,134.07,81.67ZM51.13,106.54c-1.8,0-2.22-.65-2.18-2.3.09-4.15.18-8.32,0-12.46-.13-2.53,1.21-2.45,3-2.44q25,0,49.92,0c16.43,0,32.87.08,49.3-.08,2.9,0,3.59.88,3.44,3.56-.21,3.74-.13,7.5,0,11.25.05,1.79-.42,2.46-2.36,2.46Q101.66,106.46,51.13,106.54ZM145.7,114c.09,2.37-1.74,1.28-2.81,1.6-1-.35-2.64.74-2.71-1.38-.09-2.33,1.71-1.51,2.8-1.51S145.61,111.84,145.7,114Zm-11.57,0c.07,2.12-1.52,1.5-2.58,1.5q-29.67,0-59.34,0c-1,0-2.7.65-2.64-1.44s1.71-1.32,2.74-1.33c9.94,0,19.88,0,29.82,0s19.68,0,29.52,0C132.61,112.67,134.06,112.06,134.13,114ZM143,147.82c-1.06-.35-2.92.77-2.82-1.58.08-2.07,1.73-1.27,2.74-1.27s2.91-.81,2.83,1.49C145.67,148.56,144,147.46,143,147.82Zm11.56-23a102.37,102.37,0,0,0,0,10.94c.11,2.32-.5,3.16-3,3.09-6.18-.19-12.38-.06-18.57-.06H53c-4.57,0-3.92.55-4-4.1,0-3.35.14-6.7-.06-10-.14-2.35.52-3.06,3-3,16.74.12,33.48.06,50.22.06,16.44,0,32.88.07,49.31-.06C154.06,121.59,154.7,122.37,154.56,124.84Z" fill="#3d1c01"/>
    <path d="M178.33,13.37h6.39A4.94,4.94,0,0,1,190,18.6c.07,3.75,0,7.5,0,11.25s-2.24,6.31-6.11,6.51-7.51.16-11.25,0c-4.18-.2-6.18-2.43-6.25-6.65-.06-3.45-.1-6.9-.05-10.34.07-4.2,2-6,6.16-6ZM184,24.89c0-6.05,0-6.05-6.17-6.05-5.35,0-5.35,0-5.35,5.38,0,6.1,0,6.1,6.2,6.1C184,30.32,184,30.32,184,24.89Z" fill="#ff3e02"/>
    <path d="M186,188.68H170.53c-2.95-1.11-4.14-3.38-4.16-6.38,0-3.55,0-7.1.07-10.64.11-4,2.28-6.13,6.31-6.21,3.65-.07,7.31-.08,11,0,4,.08,6.31,2.54,6.33,6.54,0,3.44-.08,6.89,0,10.33A6.15,6.15,0,0,1,186,188.68ZM178,183c6,0,6,0,6-5.94,0-5.5,0-5.5-5.51-5.5-6,0-6,0-6,5.89C172.47,183,172.47,183,178,183Z" fill="#ff3e02"/>
    <path d="M49.52,183.12a14.62,14.62,0,0,0-2.73,0c-3.19.59-3.95-.81-3.75-3.78.13-2,.86-2.59,2.55-2.26,6.25,1.21,10.41-1.81,14.35-6.24,4.49-5.07,9.54-9.66,14.32-14.48,1.11-1.12,2-2.36,3.49-.31,1.11,1.52,3.28,2.36.79,4.74Q68.21,170.71,58.32,181C55.68,183.76,52.58,183,49.52,183.12Z" fill="#3d1c01"/>
    <path d="M50.42,18.64c4-1.15,7.21,1.24,10.31,4.55,5.67,6,11.63,11.83,17.53,17.66,1.31,1.29,2.22,2.24.22,3.72-1.43,1.06-2.23,3-4.45.62-5-5.4-10.59-10.31-15.54-15.77-3.35-3.69-7-5.41-12-4.94-3.41.33-4.44-1.37-3.55-4.77.3-1.14,1-1.06,1.84-1.07C46.43,18.63,48.05,18.64,50.42,18.64Z" fill="#3d1c01"/>
    <path d="M155.55,183c-5.81,1.16-9.73-1.23-13.31-5-5.8-6.07-11.77-12-17.79-17.82-1.1-1.07-1.13-1.55-.09-2.53,3.92-3.71,2.5-3.67,6-.2,5.06,5,10.24,9.81,15,15.07,3.28,3.64,6.91,5.38,11.71,4.59,2.79-.46,3.56.65,3.51,3.43C160.52,185.56,156.7,181.81,155.55,183Z" fill="#3d1c01"/>
    <path d="M153.53,18.69a25.57,25.57,0,0,0,3.83,0c2.94-.54,3.32,1,3.22,3.41-.07,1.75-.37,2.74-2.33,2.46-.29,0-.62.15-.9.09-6-1.43-9.73,2.07-13.43,6.07-4.81,5.19-10,10-14.94,15.1-1.09,1.12-1.61,1.34-2.77.14-3-3-3-3,0-6,5.44-5.43,11-10.74,16.27-16.34C145.78,20,149.13,17.3,153.53,18.69Z" fill="#3d1c01"/>
    <path d="M101.48,83.25c-9.72,0-19.44,0-29.16,0-1,0-2.66.78-2.75-1.31-.09-2.35,1.73-1.52,2.82-1.53q29.48-.06,58.94,0c1,0,2.65-.81,2.74,1.29.1,2.33-1.71,1.54-2.82,1.55C121.33,83.27,111.41,83.25,101.48,83.25Z" fill="#f1f7e7"/>
    <path d="M102.13,112.64c9.84,0,19.68,0,29.52,0,1,0,2.41-.61,2.48,1.28.07,2.12-1.52,1.5-2.58,1.5q-29.67,0-59.34,0c-1,0-2.7.65-2.64-1.44s1.71-1.32,2.74-1.33C82.25,112.62,92.19,112.64,102.13,112.64Z" fill="#ffffff"/>
    <path d="M60.62,80.3c1,.37,2.88-.82,2.85,1.54,0,2.1-1.65,1.39-2.67,1.36s-2.87.87-2.86-1.47C58,79.58,59.63,80.63,60.62,80.3Z" fill="#f0f7e6"/>
    <path d="M142.85,83.24c-1-.29-2.68.64-2.68-1.45,0-2.31,1.82-1.37,2.88-1.4s2.65-.8,2.65,1.32C145.71,84,143.87,82.87,142.85,83.24Z" fill="#edf5e0"/>
    <path d="M60.78,115.56c-1-.37-2.86.82-2.83-1.54,0-2.11,1.64-1.38,2.65-1.35s2.88-.87,2.87,1.45C63.46,116.24,61.8,115.26,60.78,115.56Z" fill="#f0f7e6"/>
    <path d="M142.89,115.56c-1-.35-2.64.74-2.71-1.38-.09-2.33,1.71-1.51,2.8-1.51s2.63-.83,2.72,1.29C145.79,116.33,144,115.24,142.89,115.56Z" fill="#f0f7e6"/>
    <path d="M60.79,147.87c-1.19-.35-2.89.63-2.85-1.5s1.71-1.33,2.72-1.31,2.69-.83,2.8,1.22C63.59,148.72,61.56,147.28,60.79,147.87Z" fill="#ffffff"/>
    <path d="M143,147.82c-1.06-.35-2.92.77-2.82-1.58.08-2.07,1.73-1.27,2.74-1.27s2.91-.81,2.83,1.49C145.67,148.56,144,147.46,143,147.82Z" fill="#edf5e0"/>
  </g>
</svg>
