<svg id="Layer_1" data-name="Layer 1" xmlns="http://www.w3.org/2000/svg" width="200" height="200" viewBox="0 0 200 200">
  <title>gst</title>
  <g>
    <path d="M104.65,107.56v10.79c4.59,0,9.13,0,13.66,0a9.94,9.94,0,0,1,7.93,3.79,36,36,0,0,1,2.61,4.28h18c2.8,0,3.6.81,3.6,3.6v15.11H145.1V131.9H128.56a10.6,10.6,0,0,1-5.76,6.87,12.34,12.34,0,0,1-4.69,1.07c-10.79.1-21.58.06-32.37,0a10.81,10.81,0,0,1-10.12-6.82c-.21-.5-.8-1.2-1.23-1.2-5.16-.09-10.32-.06-15.66-.06V145.2H53.45a10.93,10.93,0,0,1-.12-1.12q0-7.25,0-14.48c0-2.23.94-3.16,3.18-3.16,5.79,0,11.58,0,17.37,0a1.62,1.62,0,0,0,1.8-1.24,10.58,10.58,0,0,1,10.21-6.87H99.09V107.56H61.64A29.61,29.61,0,0,1,51.43,50a2.46,2.46,0,0,0,2-2.48A34.75,34.75,0,0,1,83.85,16.31c12.92-1.58,23.58,2.92,31.93,12.85A2,2,0,0,0,118,30a26.87,26.87,0,0,1,31,17.69,2.65,2.65,0,0,0,2,1.92,29.61,29.61,0,0,1-3.42,57.49,30.15,30.15,0,0,1-5.37.42c-11.85,0-23.71,0-35.57,0Zm-2.48-5.39c13.1,0,26.2,0,39.29,0a41.3,41.3,0,0,0,5.21-.33c12.77-1.58,22.59-15.06,20.12-27.65-2.12-10.87-8.67-17.55-19.44-20a3.57,3.57,0,0,1-3-3,21.52,21.52,0,0,0-26.64-15.67c-3.19.85-3.37.75-5.3-1.89A28.77,28.77,0,0,0,91.23,21.44,29.63,29.63,0,0,0,58.72,50.62c0,2.57-.5,3.15-3.08,3.76a24.24,24.24,0,0,0,5.89,47.79Q81.85,102.2,102.17,102.17Zm-.29,21.58c-5.22,0-10.45,0-15.68,0-3.42,0-5.88,2.26-5.88,5.36s2.47,5.36,5.89,5.37h31.35c3.42,0,5.89-2.28,5.89-5.37s-2.48-5.35-5.89-5.36C112.33,123.74,107.11,123.75,101.88,123.75Z" fill="#3d1c01"/>
    <path d="M57.23,183H21.82c-2.78,0-3.58-.81-3.58-3.62V154.12c0-2.58.85-3.44,3.41-3.44H93c2.66,0,3.49.84,3.49,3.53v25.26c0,2.69-.83,3.53-3.49,3.53ZM91,156.23H23.79v21.25H91Z" fill="#3d1c01"/>
    <path d="M146.49,150.68H181.9c2.82,0,3.62.8,3.63,3.57q0,12.63,0,25.26c0,2.66-.84,3.49-3.53,3.49H110.82c-2.69,0-3.53-.83-3.53-3.49q0-12.7,0-25.42c0-2.56.86-3.41,3.45-3.41ZM180,156.23H112.83v21.25H180Z" fill="#3d1c01"/>
    <path d="M119.53,84.63c-2.06,0-3.13,1-3,3a2.9,2.9,0,0,1-1.68,3.17c-2.32,1.09-4.66,2.15-7,3.09A3.27,3.27,0,0,1,104,93c-1.39-1.43-3-1.41-4.39.06a2.93,2.93,0,0,1-3.35.89c-2.54-1-5-2.12-7.52-3.28a2.94,2.94,0,0,1-1.67-3c.06-2.36-.86-3-3.26-3.19a3.65,3.65,0,0,1-2.64-1.33,74,74,0,0,1-3.47-8,2.81,2.81,0,0,1,1-3.16c1.67-1.54,1.68-2.9,0-4.41a2.87,2.87,0,0,1-1-3.32c1-2.5,2-5,3.12-7.39a3.1,3.1,0,0,1,3.29-1.82c2,.1,3-.87,2.92-3A3,3,0,0,1,88.84,49c2.48-1.13,5-2.22,7.54-3.21a2.9,2.9,0,0,1,3.23.79c1.64,1.62,3,1.64,4.63,0a2.87,2.87,0,0,1,3.21-.85c2.54,1,5,2.12,7.52,3.27a3,3,0,0,1,1.74,3.16c-.08,2.22.92,3,3.19,3.12a3.79,3.79,0,0,1,2.76,1.39,66.8,66.8,0,0,1,3.4,7.81,2.81,2.81,0,0,1-.93,3.18c-1.73,1.64-1.73,2.89,0,4.52a2.86,2.86,0,0,1,.85,3.35c-1,2.43-2,4.83-3.12,7.21A3,3,0,0,1,119.53,84.63Zm-11.74,4c1.14-.85,3-1.51,3.38-2.65,1.09-3.59,3.15-5.83,6.78-6.69,1.49-.35,2.73-3.45,1.91-4.73a8,8,0,0,1,0-9.44c.79-1.21-.46-4.35-1.86-4.65a8.13,8.13,0,0,1-6.72-6.67c-.32-1.37-3.44-2.72-4.63-2a8.37,8.37,0,0,1-9.64,0c-1.1-.69-4.3.64-4.57,1.91a8.17,8.17,0,0,1-6.82,6.76c-1.27.28-2.56,3.49-1.85,4.57a8.07,8.07,0,0,1,0,9.72c-.71,1.06.63,4.25,1.89,4.52a8.31,8.31,0,0,1,6.7,6.52c.44,1.75,3.41,2.9,4.94,2a8,8,0,0,1,9,0Z" fill="#ff3e02"/>
    <path d="M88.32,26.8v5.27a19.4,19.4,0,0,0-13.26,5.6,19.11,19.11,0,0,0-5.59,13.22H64.3C63.49,39.64,73.78,26.67,88.32,26.8Z" fill="#ff3e02"/>
    <path d="M88.47,126.49h5.25v5.25H88.47Z" fill="#3d1c01"/>
    <path d="M99.24,131.73v-5.22h5.26v5.22Z" fill="#3d1c01"/>
    <path d="M115.31,126.55v5.2h-5.26v-5.2Z" fill="#3d1c01"/>
    <path d="M50.65,169.45v-5.22H82.91v5.22Z" fill="#ff3e02"/>
    <path d="M34.35,169.5H29.11v-5.28h5.24Z" fill="#ff3e02"/>
    <path d="M45.19,164.23v5.22H39.91v-5.22Z" fill="#ff3e02"/>
    <path d="M153.12,164.23v5.22H120.86v-5.22Z" fill="#ff3e02"/>
    <path d="M163.89,164.26v5.16h-5.23v-5.16Z" fill="#ff3e02"/>
    <path d="M169.45,164.19h5.19v5.24h-5.19Z" fill="#ff3e02"/>
    <path d="M102,59A10.81,10.81,0,1,1,91.06,69.69,10.77,10.77,0,0,1,102,59Zm5.25,10.77a5.37,5.37,0,1,0-5.33,5.4A5.43,5.43,0,0,0,107.25,69.81Z" fill="#3d1c01"/>
  </g>
</svg>
