<svg id="Layer_1" data-name="Layer 1" xmlns="http://www.w3.org/2000/svg" width="200" height="200" viewBox="0 0 200 200">
  <title>icon</title>
  <g>
    <path d="M33.39,129.76l24.46-20.19v8.5h5.86V90.36c0-1.61,0-3.22,0-4.82.06-7.11,3.17-10.26,10.33-10.29,11.92,0,23.83,0,35.75,0q8.83,0,17.67,0c8,0,11,2.93,11,10.84q0,23.7,0,47.41v4.61h5.67v-8.61l24.6,20.29L144.31,170v-8.52h-5.89c0,6,0,12,0,18,0,7.36-3.11,10.39-10.52,10.39H74.06c-7.38,0-10.34-3-10.35-10.56,0-11.11,0-22.23,0-33.34v-4.63H58.18v8.78Zm55.93,11.4H69.68V167h62.87v-5.85H112.9V138.25h19.64V98.52H69.59V118.4H89.32ZM69.37,172.93c0,2.95-.4,5.56.16,7.95.31,1.32,2.21,3.23,3.41,3.25q28.13.3,56.25,0a4.62,4.62,0,0,0,3.38-2.86c.51-2.65.16-5.48.16-8.35Zm63.38-80.59c0-1.83,0-3.16,0-4.49,0-7-.13-7.11-7.21-7.11q-23.08,0-46.17,0c-10.45,0-10.45,0-10,10.34a5.68,5.68,0,0,0,.43,1.26ZM42.46,129.76c3.32,2.82,6.24,5.32,8.44,7.18,2.16-.65,3.55-1.42,5-1.43,9.19-.11,18.38-.06,27.63-.06V123.93c-9.56,0-18.79,0-28-.06-1.26,0-2.52-.76-4.5-1.4Zm108.68,12.79c-1.79.69-2.8,1.36-3.85,1.42-2.8.16-5.62.06-8.43.07H118.57v11.52c9.44,0,18.65-.06,27.85.05,1.38,0,2.75.78,4.86,1.42l8.33-7.25Z" fill="#3d1c01"/>
    <path d="M61,98.24v4.91c-8.69,0-17.34,1-25.68-.23C23.51,101.2,16,93.24,13.27,81.79c-2.82-11.69.91-21.69,10.42-29.18A11.27,11.27,0,0,0,28,46.34a31.12,31.12,0,0,1,40.38-20.8c2.73.95,4.15.46,6.09-1.45,17.79-17.53,47.79-15.5,63.08,4.3a11.17,11.17,0,0,0,7.32,4.66c7.5,1.39,13.5,5.44,18.44,11.25a10.09,10.09,0,0,0,4.81,3.1A28.83,28.83,0,0,1,189.8,78.75c-1.68,14.21-14.1,25.07-28.73,25.09H141.65v-5.6c6.43,0,12.94.08,19.44,0,10.13-.16,17.34-5.07,21.39-14.2,6.07-13.63-2.38-28.35-17.69-31.56a8.2,8.2,0,0,1-4.61-2.9,26.35,26.35,0,0,0-20.51-11.68,5.11,5.11,0,0,1-3.48-1.94c-13.88-22.6-45-24.87-62-2.87a7.78,7.78,0,0,1-.92.82c-9.84-5.52-19.69-6.56-29.43.09A27,27,0,0,0,32.56,50.92a7.35,7.35,0,0,1-2.79,4.2C20.23,61.17,16,71,18.81,81.23c2.76,10.12,12.06,17,23.07,17C48.16,98.25,54.43,98.24,61,98.24Z" fill="#ff3e02"/>
    <path d="M43.34,57.83h-5c-.9-11.53,9.19-21.92,22-22.53v5.18C50.39,41.82,44.69,47.58,43.34,57.83Z" fill="#ff3e02"/>
    <path d="M98.43,181.06v-5.14h5.2v5.14Z" fill="#3d1c01"/>
    <path d="M109.41,84v5.15H92.88V84Z" fill="#ff3e02"/>
    <path d="M86.39,89.32H81.47V84h4.92Z" fill="#ff3e02"/>
  </g>
</svg>
