<svg id="Layer_1" data-name="Layer 1" xmlns="http://www.w3.org/2000/svg" width="200" height="200" viewBox="0 0 200 200">
  <title>icon</title>
  <g>
    <path d="M114.46,14a14.11,14.11,0,0,1,1.88,1.33c9.67,9.33,19.3,18.69,29,28a5.45,5.45,0,0,1,1.79,4.21q0,13.16,0,26.32v7.27h-5.56V49h-1.16c-7.07,0-14.14-.06-21.2,0A8,8,0,0,1,111,41c.16-6.81,0-13.63,0-20.44V19.39H42c-2.37,0-3.18.81-3.18,3.13q0,49.14,0,98.27c0,.74-.24,1-1,1.26-1.55.52-3,1.24-4.61,1.9V21.88a7.71,7.71,0,0,1,6-7.66c.19-.06.38-.15.57-.22Zm22.7,29.52L116.61,23.58c0,.15,0,.37,0,.6q0,8.33,0,16.66c0,1.91.83,2.68,2.84,2.68h17.74Z" fill="#3d1c01"/>
    <path d="M172.08,179.3a9.13,9.13,0,0,1-2.7,4.57,7.94,7.94,0,0,1-5.24,2.09q-12.63,0-25.27,0l-.59,0,.61-.48c1.75-1.43,3.52-2.83,5.24-4.3a2.15,2.15,0,0,1,1.52-.58q8.64,0,17.29,0c2.6,0,3.57-.93,3.57-3.42q0-40.93,0-81.85c0-2.4-1-3.37-3.45-3.37H111.54c-2.22,0-3.27,1-3.27,3.17q0,12.58,0,25.18v1.12h-5.6V95c0-5,3.51-8.44,8.61-8.45q26.22,0,52.44,0a8.26,8.26,0,0,1,8.1,6,4.91,4.91,0,0,0,.26.63Z" fill="#3d1c01"/>
    <path d="M38.85,143H88.09c-.67,1.75-1.29,3.41-2,5.06-.06.16-.35.28-.56.32a5.4,5.4,0,0,1-.9,0H38.91c0,.36-.06.66-.06,1q0,13.95,0,27.9c0,2.39,1,3.35,3.47,3.35q25.28,0,50.55,0a2.45,2.45,0,0,1,1.81.72c1.77,1.58,3.63,3.07,5.47,4.6a2,2,0,0,1-.45.07q-29.31,0-58.61,0a8.1,8.1,0,0,1-7.81-7.86V134.75a7.39,7.39,0,0,1,1.57-4.58,7.92,7.92,0,0,1,6.49-3.31q31.83,0,63.68,0l.47,0c-.35.2-.55.33-.76.43a38.17,38.17,0,0,0-7.28,4.41,2.53,2.53,0,0,1-1.46.49q-26.82,0-53.63,0c-2.52,0-3.51,1-3.52,3.39Z" fill="#3d1c01"/>
    <path d="M119.31,129.51c16.21.05,29,12.6,29.19,27.78.26,16.33-13.66,29-29.77,28.7-15.64-.31-28.76-12.91-28.58-28.74C90.32,142.15,103.47,129.51,119.31,129.51Zm0,51.05c13,0,23.55-10.23,23.55-22.75s-10.57-22.88-23.52-22.88a23.23,23.23,0,0,0-23.59,23.16C95.79,170.37,106.48,180.57,119.35,180.56Z" fill="#3d1c01"/>
    <path d="M137.29,118.8c-5.41,0-10.81,0-16.22,0-3.58,0-5.9-2.22-5.92-5.68,0-2.49,0-5,0-7.46,0-3.46,2.34-5.68,5.93-5.68h32.79a5.4,5.4,0,0,1,5.72,5.51q0,3.86,0,7.72c0,3.33-2.36,5.59-5.82,5.6ZM154,105.43H120.83v7.9H154Z" fill="#3d1c01"/>
    <path d="M97.1,110.72V116a4.71,4.71,0,0,1-.62.07H57a2.69,2.69,0,1,1-.13-5.38c1.09,0,2.18,0,3.26,0h37Z" fill="#3d1c01"/>
    <path d="M97.1,100v5.35h-40a2.73,2.73,0,0,1-3-2.33,2.67,2.67,0,0,1,2.06-3A3.64,3.64,0,0,1,57,100h39.3C96.53,100,96.76,100,97.1,100Z" fill="#ff3e02"/>
    <path d="M98.12,89.24,97,94.56c-.19,0-.46,0-.72,0H57a2.68,2.68,0,0,1-2.94-2.48,2.64,2.64,0,0,1,2.62-2.86c1.14,0,2.29,0,3.44,0h38Z" fill="#3d1c01"/>
    <path d="M51.38,167.15c1.32,0,2.65,0,4,0a2.71,2.71,0,1,1,.06,5.4c-2.71,0-5.43,0-8.14,0a2.71,2.71,0,1,1,0-5.4C48.66,167.14,50,167.15,51.38,167.15Z" fill="#ff3e02"/>
    <path d="M156.79,143c-.48,0-1,0-1.44,0a2.69,2.69,0,0,1-.14-5.37c1-.06,2.11-.05,3.16,0a2.69,2.69,0,0,1-.13,5.38C157.76,143,157.28,143,156.79,143Z" fill="#3d1c01"/>
    <path d="M156.86,132.24c-.55,0-1.09,0-1.63,0a2.69,2.69,0,0,1,0-5.37c1,0,2.11,0,3.16,0A2.65,2.65,0,0,1,161,129.5a2.68,2.68,0,0,1-2.51,2.73c-.54,0-1.08,0-1.62,0Z" fill="#3d1c01"/>
    <path d="M156.81,175.23c-.52,0-1,0-1.54,0a2.72,2.72,0,0,1-2.64-2.7,2.68,2.68,0,0,1,2.66-2.68c1,0,2.05,0,3.07,0a2.69,2.69,0,0,1,.07,5.37c-.54,0-1.08,0-1.62,0Z" fill="#3d1c01"/>
    <path d="M143.15,132.24a2.74,2.74,0,0,1-2.55-1c-.22-.2-.48-.35-.72-.53-.54-.42-1.31-.65-1.11-1.6s.74-2,1.78-2.09a17.24,17.24,0,0,1,4.65,0,2.48,2.48,0,0,1,1.89,2.9,2.74,2.74,0,0,1-2.66,2.31Z" fill="#3d1c01"/>
    <path d="M156.82,153.72c-2.93,0-2.93,0-3.54-2.75-.38-1.72.32-2.57,2.15-2.61,1,0,1.93,0,2.9,0a2.67,2.67,0,1,1-.07,5.34Z" fill="#3d1c01"/>
    <path d="M156.78,164.6c-.88-.14-1.78-.22-2.64-.43-.51-.12-.72-.5-.6-1.09a20.86,20.86,0,0,0,.37-3c0-.63.33-.95.91-1a30.55,30.55,0,0,1,4.06,0A2.54,2.54,0,0,1,161,162a2.63,2.63,0,0,1-2.37,2.47c-.6.06-1.21,0-1.81,0Z" fill="#3d1c01"/>
    <text transform="translate(45.89 75.03)" font-size="29.65" fill="#3d1c01" font-family="MyriadPro-Bold, Myriad Pro" font-weight="700"><tspan letter-spacing="-0.01em">V</tspan><tspan x="18.62" y="0">GST</tspan></text>
  </g>
  <path id="_200614416" data-name=" 200614416" d="M110.06,158h6.42a5.27,5.27,0,0,0,4.65-3.32H108.64a1.64,1.64,0,0,1,0-3.28h12.67a4.54,4.54,0,0,0-4.83-3.63h-7.84A1.71,1.71,0,0,1,107,146.1a1.67,1.67,0,0,1,1.64-1.64h19.22a1.64,1.64,0,1,1,0,3.28H124a8.91,8.91,0,0,1,1.28,3.64h2.61a1.64,1.64,0,1,1,0,3.27h-2.74A8.8,8.8,0,0,1,121,160.1c3.55,1.68,3.77,9,5.67,13.47,1,2.3-2.57,4.25-3.9,1.15-2-4.47-1.77-12.76-7.13-13.51h-5.62a1.66,1.66,0,0,1-1.64-1.64,1.56,1.56,0,0,1,1.64-1.55Z" fill="#ff3e02" fill-rule="evenodd"/>
</svg>
